Coordinates
version=1
nRows=11
nColumns=63
inDegrees=yes

Units are S.I. units (second, meters, Newtons, ...)
If the header above contains a line with 'inDegrees', this indicates whether rotational values are in degrees (yes) or radians (no).

endheader
time	pelvis_tilt	pelvis_list	pelvis_rotation	pelvis_tx	pelvis_ty	pelvis_tz	hip_flexion_r	hip_adduction_r	hip_rotation_r	knee_angle_r	knee_angle_r_beta	ankle_angle_r	subtalar_angle_r	mtp_angle_r	hip_flexion_l	hip_adduction_l	hip_rotation_l	knee_angle_l	knee_angle_l_beta	ankle_angle_l	subtalar_angle_l	mtp_angle_l	L5_S1_Flex_Ext	L5_S1_Lat_Bending	L5_S1_axial_rotation	L4_L5_Flex_Ext	L4_L5_Lat_Bending	L4_L5_axial_rotation	L3_L4_Flex_Ext	L3_L4_Lat_Bending	L3_L4_axial_rotation	L2_L3_Flex_Ext	L2_L3_Lat_Bending	L2_L3_axial_rotation	L1_L2_Flex_Ext	L1_L2_Lat_Bending	L1_L2_axial_rotation	L1_T12_Flex_Ext	L1_T12_Lat_Bending	L1_T12_axial_rotation	Abs_r3	Abs_r2	Abs_r1	Abs_t1	Abs_t2	neck_flexion	neck_bending	neck_rotation	arm_flex_r	arm_add_r	arm_rot_r	elbow_flex_r	pro_sup_r	wrist_flex_r	wrist_dev_r	arm_flex_l	arm_add_l	arm_rot_l	elbow_flex_l	pro_sup_l	wrist_flex_l	wrist_dev_l
4.250000	2.509644	-2.893310	63.450346	0.073553	0.981549	0.486287	8.816894	1.926234	-1.819237	12.200336	0.212936	16.300557	-8.131396	0.000000	-2.891904	-1.884618	-28.684025	9.309382	0.162479	28.494711	4.767923	0.000000	0.074223	0.242089	-4.088223	0.137840	0.321978	-4.343737	0.121941	0.588614	-4.343737	0.084830	0.588614	-3.577195	0.068924	0.493667	-3.321681	0.042411	0.374995	-3.066167	0.530169	2.738555	-22.737468	0.000000	0.000000	6.741424	0.536037	-5.435210	53.805796	-45.787852	-36.378888	71.907338	66.393476	23.173254	-6.583616	47.278019	-53.251834	-14.333102	58.909976	85.658118	-17.542591	-21.398282
4.275000	2.525788	-2.981401	62.778788	0.075656	0.981370	0.482181	8.224663	2.137573	-0.752627	11.350955	0.198112	16.297797	-8.572367	0.000000	-3.282903	-1.791390	-29.013010	9.057162	0.158077	28.661109	4.233325	0.000000	0.053136	0.327662	-4.121827	0.098680	0.435791	-4.379441	0.087298	0.796678	-4.379441	0.060730	0.796678	-3.606599	0.049342	0.668169	-3.348984	0.030362	0.507549	-3.091370	0.379548	3.706582	-22.924365	0.000000	0.000000	6.663551	2.229871	-6.247624	48.243908	-47.872338	-44.885922	75.903485	64.607472	26.650905	-6.434375	35.660480	-56.856467	-25.727266	62.400532	85.902369	-17.706362	-22.686657
4.300000	2.636730	-3.119587	62.282397	0.077441	0.981152	0.477702	7.580321	2.413169	0.211171	10.435670	0.182137	16.234350	-9.062189	0.000000	-3.636127	-1.787501	-29.019344	8.853029	0.154514	28.803604	3.536699	0.000000	0.031086	0.425162	-4.172561	0.057730	0.565466	-4.433346	0.051072	1.033740	-4.433346	0.035529	1.033740	-3.650991	0.028867	0.866991	-3.390206	0.017763	0.658576	-3.129421	0.222046	4.809521	-23.206531	0.000000	0.000000	6.515139	3.636968	-6.892726	42.120683	-49.235829	-52.121139	80.209505	63.191007	29.723837	-7.024241	23.588337	-58.910998	-37.039535	65.860246	86.434738	-17.236166	-24.271871
4.325000	2.839879	-3.272287	61.990419	0.078831	0.980962	0.473043	6.880883	2.735306	0.996140	9.490805	0.165646	16.115462	-9.551679	0.000000	-3.964510	-1.870049	-28.720408	8.705894	0.151947	28.924170	2.723504	0.000000	0.007071	0.528076	-4.224684	0.013131	0.702341	-4.488727	0.011616	1.283964	-4.488727	0.008081	1.283964	-3.696598	0.006566	1.076853	-3.432556	0.004040	0.817990	-3.168513	0.050504	5.973702	-23.496425	0.000000	0.000000	6.233778	4.814644	-7.395065	35.627438	-49.827758	-58.058392	84.623641	61.997508	32.977226	-7.597566	11.555016	-59.482497	-47.869730	69.447001	86.872474	-15.969629	-25.582285
4.350000	3.120343	-3.396598	61.904644	0.079818	0.980852	0.468431	6.126708	3.080202	1.569112	8.559089	0.149384	15.943486	-10.025282	0.000000	-4.290458	-2.026924	-28.179227	8.617158	0.150398	29.023152	1.851537	0.000000	-0.018422	0.627875	-4.251826	-0.034212	0.835074	-4.517565	-0.030266	1.526616	-4.517565	-0.021055	1.526616	-3.720348	-0.017107	1.280363	-3.454609	-0.010526	0.972579	-3.188870	-0.131587	7.102650	-23.647382	0.000000	0.000000	5.812934	5.877811	-7.844026	28.917950	-49.658165	-62.905395	88.939481	61.142037	36.347236	-7.383649	0.255944	-58.768387	-57.539850	73.309253	86.619281	-14.005655	-26.081849
4.375000	3.465626	-3.467145	61.997234	0.080436	0.980817	0.464060	5.339109	3.433707	1.942762	7.696847	0.134335	15.725064	-10.499177	0.000000	-4.628613	-2.248460	-27.478570	8.588842	0.149904	29.103005	0.967002	0.000000	-0.043308	0.717507	-4.224632	-0.080427	0.954284	-4.488671	-0.071150	1.744546	-4.488671	-0.049496	1.744546	-3.696553	-0.040216	1.463139	-3.432513	-0.024746	1.111418	-3.168474	-0.309343	8.116578	-23.496134	0.000000	0.000000	5.305482	6.959722	-8.402403	22.128429	-48.889260	-66.745065	92.865375	60.747093	39.133112	-6.118018	-9.555161	-56.907768	-65.266161	77.346033	85.300560	-11.713404	-25.757868
4.400000	3.854328	-3.470960	62.243110	0.080750	0.980804	0.460072	4.544836	3.776327	2.109270	6.948122	0.121268	15.489806	-10.961735	0.000000	-4.983213	-2.517561	-26.698579	8.617383	0.150402	29.190691	0.151720	0.000000	-0.065072	0.790262	-4.131121	-0.120845	1.051049	-4.389316	-0.106907	1.921444	-4.389316	-0.074371	1.921444	-3.614730	-0.060426	1.611503	-3.356535	-0.037182	1.224116	-3.098340	-0.464804	8.939606	-22.976053	0.000000	0.000000	4.725219	8.117012	-9.242840	15.584321	-47.859040	-68.960956	95.990890	59.589202	40.607671	-4.129808	-17.291381	-53.976453	-70.606668	81.252167	83.018263	-9.503595	-24.689942
4.425000	4.253784	-3.398580	62.612133	0.080893	0.980761	0.456565	3.764163	4.086751	2.107113	6.336706	0.110596	15.268050	-11.430720	0.000000	-5.354483	-2.806895	-25.893067	8.694159	0.151742	29.307189	-0.546023	0.000000	-0.080908	0.841638	-3.976563	-0.150255	1.119378	-4.225098	-0.132924	2.046358	-4.225098	-0.092470	2.046358	-3.479492	-0.075132	1.716268	-3.230957	-0.046231	1.303697	-2.982422	-0.577920	9.520774	-22.116449	0.000000	0.000000	4.005650	9.199350	-10.432641	9.690537	-46.605078	-69.488586	97.912262	57.739939	40.228563	-1.661236	-22.553217	-50.174887	-73.301757	84.666157	80.154364	-7.771878	-22.931210
4.450000	4.626225	-3.255759	63.087374	0.080973	0.980654	0.453559	3.030004	4.336629	1.900103	5.888005	0.102765	15.116595	-11.830885	0.000000	-5.732655	-3.087583	-25.132241	8.800369	0.153595	29.454468	-1.048614	0.000000	-0.087399	0.868631	-3.772836	-0.162309	1.155279	-4.008639	-0.143588	2.111990	-4.008639	-0.099888	2.111990	-3.301232	-0.081159	1.771313	-3.065430	-0.049940	1.345510	-2.829627	-0.624283	9.826129	-20.983385	0.000000	0.000000	3.079484	9.935428	-12.043663	4.567802	-45.147722	-68.515684	98.434691	55.115274	37.940439	1.070710	-25.080633	-45.811764	-73.122553	87.291949	76.935219	-6.613172	-20.573341
4.475000	4.961864	-3.053956	63.650337	0.080999	0.980458	0.451021	2.374291	4.516896	1.450701	5.634069	0.098333	15.080724	-12.061198	0.000000	-6.116239	-3.348803	-24.450914	8.910331	0.155515	29.632514	-1.320013	0.000000	-0.083385	0.872529	-3.538471	-0.154855	1.160463	-3.759625	-0.136994	2.121466	-3.759625	-0.095301	2.121466	-3.096162	-0.077432	1.779260	-2.875008	-0.047646	1.351547	-2.653853	-0.595612	9.870218	-19.679914	0.000000	0.000000	1.928397	10.044305	-14.115240	0.558249	-43.750786	-65.181612	97.408808	50.602682	34.479525	3.541622	-24.725749	-41.203401	-69.933203	88.878614	73.338283	-5.799041	-17.918738
4.500000	5.254184	-2.794202	64.286240	0.080958	0.980179	0.449006	1.807546	4.621852	0.746119	5.577422	0.097344	15.164868	-12.077560	0.000000	-6.498058	-3.590690	-23.926298	9.025279	0.157521	29.866526	-1.278124	0.000000	-0.070743	0.854916	-3.298541	-0.131377	1.137038	-3.504700	-0.116224	2.078642	-3.504700	-0.080853	2.078642	-2.886223	-0.065692	1.743344	-2.680064	-0.040423	1.324265	-2.473906	-0.505313	9.670978	-18.345494	0.000000	0.000000	0.581402	9.361190	-16.549913	-1.819749	-42.395621	-59.465425	94.632506	46.590404	30.538507	5.157552	-21.461884	-36.661938	-63.803295	89.249905	69.520760	-5.091634	-15.211647
